<?xml version="1.0" encoding="UTF-8"?>
<svg width="24" height="24" viewBox="0 0 24 24" fill="none" xmlns="http://www.w3.org/2000/svg">
  <defs>
    <linearGradient id="allGradient" x1="0%" y1="0%" x2="100%" y2="100%">
      <stop offset="0%" style="stop-color:#0099cc;stop-opacity:1" />
      <stop offset="100%" style="stop-color:#0077aa;stop-opacity:1" />
    </linearGradient>
    <radialGradient id="centerGlow" cx="50%" cy="50%" r="50%">
      <stop offset="0%" style="stop-color:#00d4ff;stop-opacity:0.8" />
      <stop offset="100%" style="stop-color:#0099cc;stop-opacity:0.3" />
    </radialGradient>
  </defs>

  <!-- Main container/folder -->
  <rect x="3" y="6" width="18" height="13" rx="2" ry="2" fill="url(#allGradient)" stroke="#006699" stroke-width="0.8"/>

  <!-- Folder tab -->
  <path d="M3 6 L3 4 C3 3, 4 2, 5 2 L9 2 L11 4 L19 4 C20 4, 21 5, 21 6" fill="url(#allGradient)" stroke="#006699" stroke-width="0.8"/>

  <!-- Content items representation -->
  <rect x="5" y="8" width="14" height="1.5" rx="0.75" ry="0.75" fill="#ffffff" opacity="0.9"/>
  <rect x="5" y="10.5" width="10" height="1.5" rx="0.75" ry="0.75" fill="#ffffff" opacity="0.7"/>
  <rect x="5" y="13" width="12" height="1.5" rx="0.75" ry="0.75" fill="#ffffff" opacity="0.7"/>
  <rect x="5" y="15.5" width="8" height="1.5" rx="0.75" ry="0.75" fill="#ffffff" opacity="0.7"/>

  <!-- Download arrow indicator -->
  <circle cx="17" cy="12" r="2.5" fill="url(#centerGlow)"/>
  <path d="M17 10 L17 14 M15 12 L17 14 L19 12" stroke="#ffffff" stroke-width="1.5" fill="none" stroke-linecap="round" stroke-linejoin="round"/>

  <!-- Modern accent dots -->
  <circle cx="7" cy="21" r="0.5" fill="#0099cc" opacity="0.8"/>
  <circle cx="12" cy="21" r="0.5" fill="#0099cc" opacity="0.6"/>
  <circle cx="17" cy="21" r="0.5" fill="#0099cc" opacity="0.8"/>

  <!-- File count indicator -->
  <rect x="16" y="7" width="4" height="2" rx="1" ry="1" fill="#00d4ff" opacity="0.9"/>
  <text x="18" y="8.5" font-family="Inter, sans-serif" font-size="8" font-weight="600" fill="#ffffff" text-anchor="middle">∞</text>
</svg>
