<?xml version="1.0" encoding="UTF-8"?>
<svg width="20" height="20" viewBox="0 0 20 20" fill="none" xmlns="http://www.w3.org/2000/svg">
  <defs>
    <linearGradient id="allGradient" x1="0%" y1="0%" x2="100%" y2="100%">
      <stop offset="0%" style="stop-color:#0099cc;stop-opacity:1" />
      <stop offset="100%" style="stop-color:#0088bb;stop-opacity:1" />
    </linearGradient>
  </defs>

  <!-- Main folder -->
  <rect x="2" y="5" width="16" height="11" rx="1.5" ry="1.5" fill="url(#allGradient)" stroke="#ffffff" stroke-width="0.5"/>

  <!-- Folder tab -->
  <path d="M2 5 L2 3.5 C2 2.8, 2.3 2.5, 3 2.5 L7 2.5 L8.5 4 L17 4 C17.7 4, 18 4.3, 18 5" fill="url(#allGradient)" stroke="#ffffff" stroke-width="0.5"/>

  <!-- Content lines -->
  <rect x="4" y="7" width="12" height="0.8" rx="0.4" ry="0.4" fill="#ffffff" opacity="0.9"/>
  <rect x="4" y="9" width="8" height="0.8" rx="0.4" ry="0.4" fill="#ffffff" opacity="0.7"/>
  <rect x="4" y="11" width="10" height="0.8" rx="0.4" ry="0.4" fill="#ffffff" opacity="0.7"/>
  <rect x="4" y="13" width="6" height="0.8" rx="0.4" ry="0.4" fill="#ffffff" opacity="0.7"/>

  <!-- Download indicator -->
  <circle cx="15" cy="10" r="1.8" fill="#ffffff" opacity="0.95"/>
  <path d="M15 9 L15 11 M14 10 L15 11 L16 10" stroke="#0099cc" stroke-width="1" fill="none" stroke-linecap="round" stroke-linejoin="round"/>
</svg>
