<?xml version="1.0" encoding="UTF-8"?>
<svg width="24" height="24" viewBox="0 0 24 24" fill="none" xmlns="http://www.w3.org/2000/svg">
  <defs>
    <linearGradient id="documentGradient" x1="0%" y1="0%" x2="100%" y2="100%">
      <stop offset="0%" style="stop-color:#2196f3;stop-opacity:1" />
      <stop offset="100%" style="stop-color:#1976d2;stop-opacity:1" />
    </linearGradient>
    <linearGradient id="paperGradient" x1="0%" y1="0%" x2="100%" y2="100%">
      <stop offset="0%" style="stop-color:#ffffff;stop-opacity:1" />
      <stop offset="100%" style="stop-color:#f5f5f5;stop-opacity:1" />
    </linearGradient>
  </defs>

  <!-- Document stack (back documents) -->
  <rect x="4" y="5" width="12" height="15" rx="1" ry="1" fill="#e3f2fd" stroke="#1976d2" stroke-width="0.3" opacity="0.6"/>
  <rect x="5" y="4" width="12" height="15" rx="1" ry="1" fill="#e3f2fd" stroke="#1976d2" stroke-width="0.3" opacity="0.8"/>

  <!-- Main document -->
  <rect x="6" y="3" width="12" height="15" rx="1" ry="1" fill="url(#paperGradient)" stroke="#1976d2" stroke-width="0.8"/>

  <!-- Document corner fold -->
  <path d="M15 3 L15 6 L18 6 Z" fill="#e1f5fe" stroke="#1976d2" stroke-width="0.5"/>
  <path d="M15 3 L15 6 L18 6" stroke="#1976d2" stroke-width="0.5" fill="none"/>

  <!-- Document content lines -->
  <line x1="8" y1="7" x2="15" y2="7" stroke="#2196f3" stroke-width="1" opacity="0.7"/>
  <line x1="8" y1="9" x2="16" y2="9" stroke="#2196f3" stroke-width="0.8" opacity="0.6"/>
  <line x1="8" y1="11" x2="14" y2="11" stroke="#2196f3" stroke-width="0.8" opacity="0.6"/>
  <line x1="8" y1="13" x2="15" y2="13" stroke="#2196f3" stroke-width="0.8" opacity="0.6"/>
  <line x1="8" y1="15" x2="13" y2="15" stroke="#2196f3" stroke-width="0.8" opacity="0.6"/>

  <!-- Modern document icon overlay -->
  <circle cx="9" cy="8" r="0.8" fill="#2196f3"/>
  <rect x="10.5" y="7.2" width="3" height="0.6" rx="0.3" ry="0.3" fill="#2196f3" opacity="0.8"/>

  <!-- Modern accent -->
  <rect x="6" y="19.5" width="12" height="1" rx="0.5" ry="0.5" fill="url(#documentGradient)" opacity="0.6"/>

  <!-- File type indicator -->
  <rect x="16.5" y="15" width="2" height="1.5" rx="0.3" ry="0.3" fill="#2196f3" opacity="0.8"/>
  <circle cx="17.5" cy="15.2" r="0.2" fill="#ffffff"/>
</svg>
